{"title":"ALIEN 1979 IN H.264 BY WINKER","uid":5143119,"size":1052983317,"categoryP":"video","categoryS":"movies","magnet":"?xt=urn:btih:1fd6a293f77d6a09637fea75761572ae4e2cc97e&amp;dn=ALIEN+1979+IN+H.264+BY+WINKER&amp;tr=udp%3A%2F%2Ftracker.openbittorrent.com%3A80&amp;tr=udp%3A%2F%2Fopen.demonii.com%3A1337&amp;tr=udp%3A%2F%2Ftracker.coppersurfer.tk%3A6969&amp;tr=udp%3A%2F%2Fexodus.desync.com%3A6969","seeders":0,"leechers":0,"uploader":"alanwatson","files":-1,"time":1257066933,"description":" &lt;a href=&quot;http://www.imdb.com/title/tt0078748/&quot; rel=&quot;nofollow&quot; target=&quot;_NEW&quot;&gt;http://www.imdb.com/title/tt0078748/&lt;/a&gt;\n\n\nAlien&quot; is the first movie of one of the most popular sagas in science fiction history, and introduces Sigourney Weaver as Ripley, the iron-willed woman destined to battle the galaxy's ultimate creature. The terror begins when the crew of the spaceship Nostromo investigates a transmission from a desolate planet and makes a horrifying discovery, a life form that breeds within a human host. Now the crew must fight not only for its own survival, but for the survival of all mankind.\n\nFormat : MPEG-4\nFormat profile : Base Media / Version 2\nCodec ID : mp42\nFile size : 999 MiB\nDuration : 1h 51mn\nOverall bit rate : 1 258 Kbps\nEncoded date : UTC 2009-10-17 09:58:17\nTagged date : UTC 2009-10-17 14:58:23\nWriting application : HandBrake 0.9.3 2008112300\n\nVideo\nID : 1\nFormat : AVC\nFormat/Info : Advanced Video Codec\nFormat profile : &lt;a class=&quot;__cf_email__&quot; href=&quot;/cdn-cgi/l/email-protection&quot; data-cfemail=&quot;024f636b6c424e362c32&quot;&gt;[email&amp;#160;protected]&lt;/a&gt;&lt;script cf-hash='f9e31' type=&quot;text/javascript&quot;&gt;\n/* &lt;![CDATA[ */!function(){try{var t=&quot;currentScript&quot;in document?document.currentScript:function(){for(var t=document.getElementsByTagName(&quot;script&quot;),e=t.length;e--;)if(t[e].getAttribute(&quot;cf-hash&quot;))return t[e]}();if(t&amp;&amp;t.previousSibling){var e,r,n,i,c=t.previousSibling,a=c.getAttribute(&quot;data-cfemail&quot;);if(a){for(e=&quot;&quot;,r=parseInt(a.substr(0,2),16),n=2;a.length-n;n+=2)i=parseInt(a.substr(n,2),16)^r,e+=String.fromCharCode(i);e=document.createTextNode(e),c.parentNode.replaceChild(e,c)}}}catch(u){}}();/* ]]&gt; */&lt;/script&gt;\nFormat settings, CABAC : Yes\nFormat settings, ReFrames : 3 frames\nCodec ID : avc1\nCodec ID/Info : Advanced Video Coding\nDuration : 1h 51mn\nBit rate mode : Variable\nBit rate : 1 094 Kbps\nWidth : 720 pixels\nHeight : 436 pixels\nDisplay aspect ratio : 2.35:1\nFrame rate mode : Variable\nFrame rate : 25.000 fps\nMinimum frame rate : 12.500 fps\nMaximum frame rate : 86.486 fps\nResolution : 24 bits\nColorimetry : 4:2:0\nScan type : Progressive\nBits/(Pixel*Frame) : 0.139\nStream size : 869 MiB (87%)\nWriting library : x264 core 65\n\n\nAudio\nID : 2\nFormat : AAC\nFormat/Info : Advanced Audio Codec\nFormat version : Version 4\nFormat profile : LC\nFormat settings, SBR : No\nCodec ID : 40\nDuration : 1h 51mn\nBit rate mode : Variable\nBit rate : 160 Kbps\nMaximum bit rate : 226 Kbps\nChannel(s) : 2 channels\nChannel positions : L R\nSampling rate : 48.0 KHz\nResolution : 16 bits\nStream size : 127 MiB (13%)\nLanguage : English\nEncoded date : UTC 2009-10-17 09:58:17\nTagged date : UTC 2009-10-17 14:58:18 ","torrent":{"xt":"urn:btih:1fd6a293f77d6a09637fea75761572ae4e2cc97e","amp;dn":"ALIEN+1979+IN+H.264+BY+WINKER","amp;tr":["udp%3A%2F%2Ftracker.openbittorrent.com%3A80","udp%3A%2F%2Fopen.demonii.com%3A1337","udp%3A%2F%2Ftracker.coppersurfer.tk%3A6969","udp%3A%2F%2Fexodus.desync.com%3A6969"],"infoHash":"1fd6a293f77d6a09637fea75761572ae4e2cc97e","infoHashBuffer":{"type":"Buffer","data":[31,214,162,147,247,125,106,9,99,127,234,117,118,21,114,174,78,44,201,126]},"announce":[],"urlList":[]}}